<?xml version="1.0" encoding="utf-8"?>
<!-- Generator: Adobe Illustrator 25.2.1, SVG Export Plug-In . SVG Version: 6.00 Build 0)  -->
<svg version="1.1" id="レイヤー_1" xmlns="http://www.w3.org/2000/svg" xmlns:xlink="http://www.w3.org/1999/xlink" x="0px"
	 y="0px" viewBox="0 0 248.5 30.1" style="enable-background:new 0 0 248.5 30.1;" xml:space="preserve">
<style type="text/css">
	.st0{fill-rule:evenodd;clip-rule:evenodd;fill:#000305;}
	.st1{fill-rule:evenodd;clip-rule:evenodd;fill:none;}
	.st2{font-family:'HannotateTC-W5-B5pc-H';}
	.st3{font-size:31.8898px;}
</style>
<g>
	<path class="st0" d="M15.9,4C16,4,16,4,15.9,4C16,4.1,16,4.1,15.9,4C16,4.1,16,4.1,15.9,4L15.9,4L15.9,4c0.1,0,8.5,5.1,8.5,5.1
		l-8.4-5.1l0,0l0,0l0,0c0,0,0,0,0,0.1c0,0,0,0,0.1,0c0,0,0,0,0,0c0,0,0,0,0,0c0,0,0,0,0,0s0.1,0,0.1,0l0,0l0,0l0,0c0,0,0,0,0,0l0,0
		l0,0l0,0l0,0c0,0,0,0,0,0l0,0c0,0,0,0,0,0s0,0,0,0s0,0,0,0c0,0,0,0,0,0s0,0,0,0s0,0,0,0l0,0h0c0,0,0,0,0.1,0s0,0,0,0h0
		c0,0,0,0,0-0.1l0,0l0,0h0l0,0c0,0,0,0,0,0l0,0l0,0l0,0c0,0,0,0,0-0.1l0,0c0,0,0,0,0,0c0,0,0,0,0,0l0,0c0,0,0,0,0,0c0,0,0,0,0.1,0
		c0,0,0,0,0,0c0,0,0-0.1,0-0.1l0,0l0,0l0,0c0,0,0,0,0,0h0c0,0,0.1,0,0.1,0c0,0,0,0,0.1-0.1h0l0,0c0,0,0,0,0.1,0h0c0,0,0,0,0,0
		c0,0,0,0,0,0c0,0,0,0,0.1,0c0,0,0,0,0,0c0,0,0,0,0,0l0,0v0c0,0,0,0,0.1,0c0,0,0,0,0,0l0,0v0l0,0l0,0v0l0,0l0,0c0,0,0,0,0,0
		c0,0,0,0,0,0l0,0c0,0,0,0,0,0v0l0,0c0,0,0,0,0,0.1c0,0,0,0,0,0.1l0,0v0c0,0,0,0.1,0,0.1v0l0,0l0,0c0,0,0,0,0,0l0,0l0,0v0l0,0
		c0,0,0,0,0,0h0l0,0l0,0v0c0,0,0,0,0,0l0,0l0,0c0,0,0,0,0,0l0,0c0,0,0,0,0,0l0,0c0,0,0,0,0,0c0,0,0,0.1,0.1,0.1h0l0,0h0c0,0,0,0,0,0
		c0,0,0,0,0,0l0,0h0l0,0h0c0,0,0,0,0,0h0c0,0,0,0,0,0h0c0,0,0,0,0,0c0,0,0,0,0,0c0,0,0,0,0,0h0l0,0c0,0,0,0,0,0s0.1,0,0.1,0
		c0,0,0,0,0,0l0,0l0,0l0,0l0,0h0l0,0l0,0c0,0,0,0,0.1,0h0c0,0,0,0,0,0l0,0l0,0c0,0,0,0,0,0c0,0,0,0,0,0l0,0c0,0,0,0,0,0c0,0,0,0,0,0
		c0,0,0.1,0,0.1,0c0,0,0,0,0,0l0,0c0,0,0,0,0,0c0,0,0,0,0,0h0l0,0l0,0c0,0,0,0,0.1,0l0,0c0,0,0,0,0,0c0,0,0,0,0,0l0,0h0c0,0,0,0,0,0
		s0.1,0,0.1,0c0,0,0,0,0,0s0,0,0,0c0,0,0,0,0,0c0,0,0,0,0,0l0,0c0,0,0,0,0,0c0,0,0,0,0.1,0c0,0,14.4,9.1,14.4,9.1
		c0,0-14.3-9.1-14.3-9.1v0c0,0,0.1,0,0.1,0s0,0,0.1,0l0,0h0l0,0c0,0,0,0,0,0l0,0l0,0c0,0,0,0,0,0h0l0,0h0c0,0,0,0,0,0.1l0,0
		c0,0,0,0,0,0l0,0c0,0,0,0,0,0s0,0,0,0l0,0l0,0l0,0v0l0,0v0c0,0,0,0,0,0.1v0v0.1c0,0,0,0,0,0c0,0,0,0,0,0.1v0c0,0,0,0,0,0v0v0
		c0,0,0,0,0,0l0,0l0,0l0,0c0,0,0,0,0,0l0,0c0,0,0,0,0,0l0,0v0l0,0c0,0,0,0.1,0,0.1c0,0,0,0,0,0h0l0,0h0c0,0,0,0,0,0c0,0,0,0,0,0l0,0
		c0,0,0,0,0,0c0,0,0,0,0,0c0,0,0,0,0,0l0,0c0,0,0,0,0,0.1h0c0,0,0,0,0,0c0,0,0,0,0,0l0,0l0,0c0,0,0,0,0,0h0l0,0l0,0c0,0,0,0,0.1,0
		c0,0,0,0,0,0c0,0,0,0,0,0c0,0,0,0,0,0l0,0l0,0c0,0,0,0,0,0c0,0,0,0,0.1,0s0,0,0.1,0l0,0c0,0,0,0,0.1,0l0,0h0l0,0h0l0,0
		c0,0,0,0,0.1,0c0,0,0,0,0.1,0l0,0c0,0,0,0,0,0c0,0,0,0,0,0c0,0,0.1,0,0.1,0c0,0,0,0,0,0l0,0c0,0,0,0,0,0c0,0,0,0,0,0c0,0,0,0,0.1,0
		s0,0,0,0s0,0,0,0l0,0l0,0h0c0,0,0,0,0,0h0l0,0l0,0h0l0,0h0c0,0,0,0,0,0l0,0c0,0,0,0,0,0l0,0l0,0c0,0,0,0,0,0l0,0l0,0v0c0,0,0,0,0,0
		v0l0,0c0,0,0,0,0,0v0c0,0,0,0,0,0l0,0l0,0v0l0,0c0,0,0,0,0,0c0,0,4.2,0.7,4.2,0.7l-4.1-0.6v0l0,0c0,0,0,0.1,0,0.1c0,0,0,0,0,0.1v0
		v0l0,0c0,0,0,0,0,0.1c0,0,0,0,0,0l0,0c0,0,0,0,0,0l0,0v0l0,0c0,0,0,0,0,0c0,0,0,0,0,0l0,0c0,0,0,0,0,0c0,0,0,0,0,0l0,0l0,0l0,0
		c0,0,0,0,0,0l0,0c0,0,0,0,0,0l0,0c0,0,0,0,0,0c0,0,0,0,0,0s0,0,0.1,0c0,0,0,0,0,0c0,0,0,0,0,0c0,0,0,0,0,0l0,0v0c0,0,0,0,0,0h0
		c0,0,0,0,0,0c0,0,0,0,0,0c0,0,0.1,0,0.1,0h0h0l0,0c0,0,0,0,0.1,0c0,0,0.1,0,0.1,0.1l0,0l0,0v0l0,0c0,0,0,0,0,0l0,0l0,0h0
		c0,0,0,0,0,0c0,0,1.6-2.3,1.6-2.3c0,0-1.6,2.3-1.6,2.4h0l0,0l0,0l0,0l0,0h0c0,0,0,0,0,0c0,0,0,0,0,0l0,0h0v0c0,0,0,0,0,0l0,0v0
		c0,0,0,0,0,0c0,0,0.1,0,0.1,0.1c0,0,0,0,0,0s0,0,0,0v0c0,0,0,0,0.1,0l0,0c0,0,0,0,0,0c0,0,0,0,0,0c0,0,0,0,0,0c0,0,0,0,0.1,0h0l0,0
		c0,0,0,0,0,0c0,0,0,0,0.1,0c0,0,0,0,0,0l0,0c0,0,0,0,0,0l0,0h0l0,0c0,0,0,0,0.1,0c0,0,0,0,0,0s0,0,0,0l0,0h0l0,0c0,0,0,0,0,0
		c0,0,0,0,0,0l0,0c0,0,0,0,0,0l0,0l0,0c0,0,0,0,0,0c0,0,0-0.1,0-0.1l0,0l0,0c0,0,0,0,0,0h0h0c0,0,0,0,0,0s0,0,0,0l0,0v0l0,0v0
		c0,0,0,0,0,0l0,0l0,0v0l0,0v0c0,0,0,0,0.1-0.1c0,0,0,0,0,0l0,0h0c0,0,0,0,0,0c0,0,0,0,0,0c0,0,0,0,0.1-0.1h0l0,0h0c0,0,0,0,0,0l0,0
		c0,0-0.3-2.2-0.2-2.2l0.3,2.2h0l0,0h0c0,0,0-0.1,0-0.1c0,0,0,0,0,0c0,0,0,0,0,0l0,0c0,0,0,0,0,0s0,0,0,0l-0.5-2c0,0,0.5,2,0.5,2
		l0,0c0,0,0,0,0,0s0,0,0,0c0,0,0,0,0,0c0,0,0,0,0,0h0c0,0,0,0,0.1,0c0,0,0,0,0,0c0,0,0,0,0,0c0,0,0,0,0,0v0c0,0,0,0,0,0c0,0,0,0,0,0
		c0,0,0,0,0,0l0,0c0,0,0,0,0,0l0,0l0,0c0,0,0,0,0,0c0,0,0,0,0,0l0,0h0l0,0c0,0,0,0,0,0l0,0c0,0,0,0,0.1,0c0,0,0,0,0,0c0,0,0,0,0,0
		c0,0,0,0.1,0,0.1c0,0,1.8-0.6,1.8-0.6l-1.7,0.6l0,0l0,0l0,0l0,0l0,0l0,0l0,0h0l0,0c0,0,0,0,0,0c0,0,0,0,0,0l0,0c0,0,0,0,0,0
		c0,0,0,0,0,0c0,0,0,0,0,0s2.1,3.3,2.1,3.3c0,0-2.1-3.2-2.1-3.1l0,0c0,0,0,0,0,0.1v0l0,0c0,0,0,0,0,0l0,0l0,0l0,0c0,0,0,0,0,0
		s0,0,0,0c0,0,0,0,0,0c0,0,0,0,0,0c0,0,0,0,0,0c0,0,0,0,0,0c0,0,0,0,0,0l0,0l0,0c0,0,0,0,0,0c0,0,0,0,0,0c0,0,0,0-0.1,0c0,0,0,0,0,0
		c0,0,0,0,0,0c0,0,0,0,0,0l0,0c0,0,0,0,0,0c0,0,0,0,0,0l0,0l0,0c0,0,0,0,0,0c0,0,0,0,0,0l0,0c0,0,0,0,0,0c0,0,0,0,0,0h0l0,0h0
		c0,0,0,0,0,0c0,0,0,0,0,0c0,0-0.1,0-0.1,0c0,0,0,0-0.1,0h0c0,0,0,0-0.1,0l0,0l0,0c0,0,0,0,0,0h0l1.4,1.7l-1.4-1.7c0,0,0,0,0,0l0,0
		l0,0l0,0l0,0h0l0,0h0c0,0,0,0,0,0l0,0c0,0,0,0,0,0h0h0l0,0c0,0,0,0,0,0h0c0,0,2.9,3.9,2.9,4c0,0-2.9-3.9-3-3.9c0,0,0,0,0,0h0
		c0,0,0,0,0,0h0l0,0h0c0,0,0,0,0,0l0,0c0,0,0,0,0,0h0l0,0c0,0,0,0,0,0l0,0h0l0,0v0v0c0,0,0,0-0.1,0l0,0l0,0v0l0,0l0,0v0c0,0,0,0,0,0
		l1.3,0.9c0,0-1.4-0.9-1.4-0.8c0,0,0,0,0,0h0l0,0c0,0,0,0,0,0c0,0,0,0,0,0c0,0,0,0-0.1,0v0l0,0l0,0l0,0h0l0,0h0l0,0h0l0,0
		c0,0,0,0,0,0c0,0,0,0,0,0c0,0,0,0,0,0.1l0,0c0,0,0,0,0,0c0,0,0,0,0,0l0,0l0,0c0,0,0,0,0,0l0,0c0,0,0.1,0,0.1,0l0,0c0,0,0,0,0,0
		c0,0,0,0,0,0v0c0,0,0,0,0,0l0,0h0l0,0l0,0c0,0,0,0,0,0c0,0,0,0,0,0.1c0,0,0,0,0,0c0,0,4.6,1.1,0,0h0h0c0,0,0,0,0,0c0,0,0,0,0,0
		c0,0,0,0,0,0h0l0,0l0,0c0,0,0,0,0,0c0,0,0,0,0,0l0,0c0,0,0,0,0,0l0,0l0,0c0,0,1.6,0.5,1.6,0.6l-1.5-0.5c0,0,0,0,0.1,0l0,0l0,0
		c0,0,0,0,0,0c0,0,0,0,0,0l0,0c0,0,0,0,0,0l0,0.1c0,0,0,0,0,0c0,0,0,0,0,0l0,0c0,0,0,0,0,0c0,0,0,0,0,0l0,0.1c0,0,0,0,0,0
		c0,0,0,0,0,0c0,0,0,0,0,0c0,0,0,0,0,0c0,0,0,0,0,0c0,0,0,0,0,0v0l0,0l0,0l0,0c0,0,0,0,0,0l0,0l0,0l0,0l0,0l0,0l0,0l0,0l0,0
		c0,0,0,0,0,0c0,0,0,0,0,0c0,0,0,0,0,0v0l0,0h0l0,0l1.6-0.8l-1.6,0.8c0,0,0,0,0,0c0,0,0,0,0,0c0,0,0,0,0,0l0,0c0,0,0,0,0,0
		c0,0,0,0,0,0c0,0,0,0,0,0c0,0,0,0,0,0h0c0,0,0,0,0,0c0,0,0,0,0,0v0c0,0,0,0,0,0c0,0,1.2,0,1.2,0h-1.2l0,0l0,0l0,0c0,0,0,0,0,0
		l0.8-0.5c0,0-0.8,0.5-0.7,0.5h0l0,0h0c0,0,0,0,0,0l0,0l0,0c0,0,0,0,0,0c0,0,0,0,0,0l0,0l0,0c0,0,0,0,0,0c0,0,0,0,0.1,0c0,0,0,0,0,0
		c0,0,0,0,0,0c0,0,0,0,0,0c0,0,0,0,0,0h0l0,0c0,0,0,0,0,0c0,0,0,0.1,0,0.1c0,0,0,0,0,0c0,0,0,0,0,0s0,0,0,0c0,0,0,0,0,0.1
		c0,0,0,0,0,0c0,0,0,0,0,0c0,0,0,0.1,0,0.1l0,0c0,0,0,0,0,0.1h0l0,0c0,0,0,0,0,0l0,0h0c0,0,0,0,0,0.1c0,0,0,0,0,0l0,0c0,0,0,0,0,0
		l0,0h-0.1l0,0h0c0,0,0,0,0,0.1h0c0,0,0,0,0,0l0,0l0,0c0,0,0,0,0,0l0,0c0,0,0,0,0,0c0,0,0,0,0,0v0l0,0c0,0,0,0,0,0l0,0l0,0
		c0,0,0,0,0,0s0,0,0,0l0,0l0,0c0,0,0,0,0,0c0,0,0,0,0,0c0,0,0,0,0,0l0,0l0,0v0l0,0l0,0c0,0,0,0,0,0l0,0l0,0l0,0c0,0,0,0,0,0
		c0,0,0,0,0,0c0,0,0,0,0,0.1c0,0,0,0,0,0v0c0,0,0,0,0,0c0,0,2.6,0,2.6,0c0,0-2.6,0.1-2.6,0.1c0,0,0,0,0,0.1v0c0,0,0.5,0,0.5,0
		c0,0-0.5,0.1-0.5,0.1c0,0,0,0,0,0l3-2.1c0,0-2.9,2.2-2.9,2.2c0.1,0.1,0.5,0.7,0,0.1l0,0c0,0,0,0,0,0c0,0,0,0,0,0c0,0,0,0,0,0
		c0,0,0,0,0,0.1c0,0,0,0,0,0s0,0,0,0v0c0,0,10.3,7.4,0,0.1l0,0l0,0c0,0,0,0,0,0l0,0c0,0,0,0,0,0l0,0c0,0,0,0.1,0,0.1l0,0l0.2,0h-0.2
		v0c0,0,0,0,0,0l0,0l0,0l0,0c0,0,0,0.1,0,0.1l0,0c0,0,0,0,0,0l0,0v0c0,0,0,0,0,0l0,0c0,0,0,0.1,0,0.1c0,0,0,0,0,0l0,0
		c0,0,0,0,0.1,0.1c0,0,0,0,0,0l0,0l0,0l0,0c0,0,0,0,0,0c0,0,0,0,0,0c0,0,0,0,0,0l0,0c0,0,0,0,0,0c0,0,0,0,0,0l0,0l0,0l0,0h0l0,0
		c0,0,0,0,0,0l0,0h0c0,0,0,0,0,0h0l0,0c0,0,0,0,0,0c0,0,0,0,0,0l0,0c0,0,0,0,0,0c0,0,0,0,0,0l0,0h0h0l0,0h0h0l0,0l0,0c0,0,0,0,0,0
		l0,0c0,0,0,0,0.1,0l0,0l0,0h0l0,0c0,0,0,0,0,0c0,0,0,0,0,0l0,0l0,0h0c0,0,0,0,0,0s0,0,0,0l0,0c0,0,0,0,0,0l0,0c0,0,0,0,0,0
		c0,0,0,0,0,0l0,0l0,0l0,0l0,0v0c0,0,0,0,0.1,0l0,0l0,0l0,0c0,0,0,0,0,0c0,0,0,0,0,0h0l0,0c0,0,0,0,0,0c0,0,0,0,0,0c0,0,0,0,0,0l0,0
		h0l1.3-0.1c0,0-1.3,0.1-1.3,0.1s0,0,0,0s0,0,0,0l0,0c0,0,0,0,0,0c0,0,0,0,0,0c0,0,0,0-0.1,0s0,0,0,0h0l0,0c0,0,0,0,0,0c0,0,0,0,0,0
		h0l0,0c0,0,0,0-0.1,0l0,0c0,0,0,0-0.1,0h0c0,0,0,0,0,0h0l0,0l0,0l0,0l0,0c0,0,0,0,0,0c0,0,0,0,0,0c0,0,0,0,0,0l0,0l0,0h0l0,0l0,0
		c0,0,0,0,0,0c0,0,0,0-0.1,0l0,0c0,0,0,0,0,0l0,0c0,0,0,0,0,0c0,0,0,0,0,0l3.1,1.5L26,15.2c0,0,0,0,0,0v0c0,0,0,0,0,0l0,0
		c0,0,0,0,0,0l0,0h0c0,0,0,0,0,0s0,0,0,0l0,0c0,0,0,0-0.1,0c0,0,0,0,0,0c0,0,0,0,0,0v0c0,0,0,0,0,0v0l0,0l0,0c0,0,0,0,0,0l0,0
		c0,0,0,0,0,0c3.4,1.9,0,0,0,0h0c0,0,0,0,0,0c0,0,0,0,0,0s0,0,0,0.1c0,0,0,0,0,0c0,0,0,0,0,0.1c0,0,0,0,0,0c0,0,0,0,0,0.1
		c0,0,0,0,0,0h0l0,0c0,0,0,0.1,0,0.1v0v0c0,0,0,0,0,0.1s0,0,0,0l0,0v0c0,0,0,0,0,0.1c0,0,0,0,0,0l0,0c0,0,0,0,0,0s0,0,0,0v0.1
		c0,0,0,0,0,0l0,0c0,0,0,0,0,0l0,0h0l0,0l0,0v0c0,0,0,0,0,0l0,0c0,0,0,0,0,0l0,0l0,0c0,0,0,0,0,0c0,0,0,0,0,0c0,0,0,0,0,0
		c0,0,0,0,0,0c0,0,0,0,0,0s0,0,0,0c0,0,0,0,0,0l0,0l0,0c0,0,0,0,0,0c0,0,0,0,0,0c0,0,0.6,0.4,0.6,0.4c0,0-0.5-0.4-0.5-0.3l0,0l0,0
		c0,0,0,0,0,0l0,0c0,0,0,0,0,0s0,0,0.1,0c0,0,0,0,0,0c0,0,0,0,0,0c0,0,0,0,0,0c0,0,0.1,0,0.1,0L25,21.8l6.3,1c0,0-4.9-5.6-4.9-5.6
		l0,0l0,0c0,0,0,0,0,0v0c0,0,0,0,0,0l0,0l0,0l0,0c0,0,0,0,0,0c0,0,0,0,0,0c0,0,0,0,0,0c0,0,0,0.1,0,0.1s0,0,0,0.1c0,0,0,0,0,0
		s0,0,0,0l0,0c0,0,0,0,0,0l0,0c0,0,0,0,0,0c0,0,0,0,0,0c0,0,0,0,0,0h0c0,0,0,0,0,0c0,0,0,0,0,0c0,0,0,0,0,0h0l0,0h0l0,0
		c0,0-0.1,0-0.1,0c0,0,0,0,0,0c0,0-0.1,0-0.1,0l0,0c0,0,0,0,0,0h0c0,0,0,0,0,0h0l0,0c0,0,0,0-0.1,0l3.9,0.4c0,0-3.9-0.4-3.9-0.4l0,0
		c0,0,0,0,0,0h0h0c0,0,0,0,0,0c0,0,0,0,0,0l0,0c0,0-0.1,0-0.1,0c0,0,0,0,0,0c0,0-0.1,0-0.1,0c0,0,4.3,2-0.1,0l0,0c0,0,0,0,0,0
		c0,0,0,0,0,0h0c0,0,0,0,0,0c0,0,0,0,0,0l0,0h0c0,0,0,0,0,0c0,0,0,0,0,0l0,0v0c0,0,0,0,0,0v0c0,0,0,0,0,0s0,0,0,0.1c0,0,0,0,0,0l0,0
		c0,0,0,0,0,0c0,0,0,0,0,0.1l0,0l0,0l0,0c0,0,0,0,0,0c0,0,0,0,0,0l0,0.1l0,0l0,0l0,0l0,0l0,0c0,0,0,0-0.1,0c0,0,0,0,0,0
		c0,0,0,0,0,0.1v0c0,0,0,0,0,0s0,0,0,0l0,0c0,0,0,0,0,0c0,0,0,0,0,0.1c2.6,2.7,0,0,0,0l0,0c0,0,0,0,0,0c0,0,0,0,0,0c0,0,0,0,0,0
		c0,0,3.2,2.9,3.2,3c0,0-3.2-2.9-3.2-2.9c0,0,0,0,0,0s0,0,0,0l0,0v0l0,0c0,0,0,0,0,0l0,0l0,0l0,0l0,0c0,0,0,0,0,0l0,0c0,0,0,0,0,0
		c0,0,0,0,0,0c0,0,0,0,0,0c0,0,0,0,0,0l0,0c0,0,0,0,0,0l0,0c0,0,0,0,0,0c0,0,0,0,0,0l0,0.1c0,0,0,0,0,0c0,0,0,0,0,0c0,0,0,0.1,0,0.1
		c0,0,0,0,0,0l0,0c0,0,0,0,0,0c0,0,0,0,0,0l0,0c0,0,0,0,0,0c0,0,0,0,0,0l0,0c0,0,0,0,0,0l0,0c0,0,0,0,0,0s0,0,0,0
		c0,0,13.6-3.5,13.6-3.5l-13.6,3.6c0,0,0,0,0,0s3.9-3.1,3.9-3.1c0,0-3.9,3.1-3.9,3.1s0,0,0,0l0,0l0,0c0,0,0,0,0,0c0,0,0,0,0,0l0,0
		c0,0,0,0,0,0l0,0l0,0l0,0v0c0,0,0,0,0,0l0,0c0,0,1.5,5.8,1.5,5.8L25,20l0,0c0,0,0,0.1,0,0.1l0,0l0,0c0,0,4.1,0.2,4.1,0.2L25,20.2
		l0,0l0,0c0,0,0,0,0,0l0,0c0,0,0,0.1-0.1,0.1l0,0l0,0v0h0l0,0c0,0,0,0,0,0l0,0c0,0,0,0,0,0l0,0l0,0c0,0,0,0,0,0c0,0,0,0,0,0l0,0l0,0
		c0,0,0,0,0,0c0,0,0,0,0,0l0,0l0,0v0c0,0,0,0.1,0,0.1c0,0,0,0,0,0c-31.1-19.3-24.2-9-4.1,1c13.6,6.8,6.8,2.3,6.8,2.3
		c0.2,1-2.3-2.1-2.3-2.1c0,0,3.1,0,3.1,0S25,21.9,25,21.9v0l0,0c0,0,0,0,0.1,0c0,0,0,0,0,0l0,0h0l0,0c0,0,0,0,0,0c0,0,0,0,0,0l0,0
		l0,0c0,0,0,0,0,0v0h0l0,0l0,0h0l0,0c0,0,0,0,0,0c0,0,0,0,0,0l0,0h0c0,0,0,0,0,0c0,0,3.6,1.2,3.7,1.2l-3.6-1.1c0,0,0,0,0,0
		c0,0,0,0,0,0s0,0,0,0s0,0,0,0c0,0,0,0.1-0.1,0.1c0,0,0,0,0,0l0,0l0,0h0h0l0,0c0,0,0,0,0,0l0,0h0l0,0h0l0,0l0,0c0,0,0,0,0,0l0,0l0,0
		c0,0,0,0,0,0c0,0,0,0,0,0c0,0,0,0,0,0l0,0l0,0c0,0,0,0,0,0h0c0,0,0,0,0,0l0,0h0l0,0h0c0,0,0,0,0,0c0,0,0,0,0,0l0,0c0,0,0,0,0,0h0
		c0,0,0,0,0,0c0,0,0,0-0.1,0c0,0,0,0-0.1,0c0,0,0,0,0,0l0,0l0,0v0c0,0,0,0,0,0l0,0c0,0,0,0,0,0l0,0c0,0,0,0,0,0c0,0,0,0,0,0l0,0l0,0
		h0l0,0c0,0,0,0,0,0s0,0,0,0c0,0,0,0,0,0c0,0,0,0,0,0l0,0c0,0,0,0.1-0.1,0.1c0,0,0,0,0,0c0,0,0,0,0,0h0l0,0h0l0,0c0,0,0,0,0,0l0,0h0
		c0,0,0,0,0,0c0,0,2.6,0.4,2.6,0.4l-2.7-0.4h0l0,0L24,22.6c0,0-0.1,0-0.1,0c0,0,0,0,0,0c0,0,0,0,0,0l0,0l0,0c0,0,0,0,0,0l0,0l0,0
		c0,0,0,0,0,0c0,0-0.1,0-0.1,0l0,0c0,0,0,0-0.1,0l0,0l0,0h0l0,0v0l0,0l0,0l0,0l0,0v0c0,0,0,0,0,0c0,0,0,0,0,0l0,0l0,0l0,0
		c0,0,0,0,0,0l0,0l0,0c0,0,6.3,3.1,0,0c0,0,0,0,0,0l0,0c0,0,0,0,0,0c0,0,0,0,0,0c0,0,0,0,0,0l0,0l0,0c0,0,0,0.1,0,0.1c0,0,0,0,0,0
		c0,0,0,0,0,0c0,0,0.6,3.3,0.6,3.3l-0.6-3.2c0,0,0,0,0,0h0c0,0,0,0,0,0l0,0c0,0,0,0,0,0c0,0,0,0,0,0h0l0,0h0l0,0c0,0,0,0,0,0l0,0
		l0,0l0,0c0,0,0,0,0,0l3.1,2.4L23,23.5c0,0,0,0,0,0h0c0,0,0,0,0,0h0c0,0,0,0,0,0h0c0,0,0,0,0,0c0,0,0,0,0,0l0,0c0,0,0,0,0,0h0l0,0
		c0,0,0,0,0,0l0,0c0,0,7.9,3.6,7.9,3.6c0,0-8-3.6-8-3.6c0,0,5.8,0.7,5.8,0.7c0,0-5.8-0.7-5.8-0.6h0l0,0h0c0,0,0,0,0,0h0l0,0l0,0l0,0
		c0,0,0,0,0,0c0,0,0,0,0,0l0,0c0,0,0,0,0,0l0,0h0l0,0l0,0c0,0,0,0,0,0c0,0,0,0,0,0c0,0,0,0,0,0l0,0l0,0h0l0,0c0,0,0,0,0,0l0,0h0
		c0,0,0,0,0,0l0,0h0h0c0,0,0,0.1-0.1,0.1c0,0,0,0,0,0.1c0,0,0,0,0,0.1l0,0l0,0l0,0c0,0,0,0,0,0c0,0,0,0,0,0l0,0c0,0,0,0,0,0
		c0,0,0,0,0,0l0,0l0,0c0,0,0,0,0,0l0,0l0,0c0,0,0,0,0,0l0,0l0,0l0,0l0,0c0,0,0,0,0,0l0,0l0,0l0,0l0,0c0,0,0,0,0,0l0,0l0,0l0,0l0,0
		c0,0,0,0,0,0l0,0l0,0c0,0,0,0,0,0v0l0,0c0,0,0,0,0,0l0,0v0c0,0,0,0,0,0l0,0c0,0,0,0,0,0c0,0,0,0,0,0h0l0,0c0,0,0,0,0,0
		c0,0,0,0,0,0.1c0,0,0,0,0,0h0h0c0,0,0,0,0,0.1c0,0,0,0,0,0c0,0,0,0,0,0l0,0l0,0l0,0l0,0c0,0,0,0,0,0l0,0c0,0,0,0,0,0l0,0l5.4-0.9
		c0,0,1,0.5,1,0.5c0,0-6.4,0.4-6.4,0.4l4.8-2c0,0-4.8,2-4.8,2.1v0l0,0c0,0,5.9,0.7,5.9,0.7c0,0-5.9-0.6-5.9-0.6c0,0,0,0,0,0l0,0
		c0,0,0,0.1,0,0.1s0,0,0,0c0,0,0,0,0,0c0,0.2,0,0.2,0,0.2c0,0,4.4-0.3,4.4-0.3c0,0,0.6,1.6,0.6,1.6l-5.1-1.2c0,0-0.1,0-0.1,0h0l0,0
		h0l0,0h0c0,0,0,0,0,0c0,0,0,0,0,0l0,0h0c0,0,0,0,0,0s0,0,0,0c0,0,0,0,0,0c0,0,0,0,0,0c0,0,0,0,0,0h0c0,0,0,0,0,0c0,0,0,0,0,0
		c0,0,0,0,0,0h0c0,0,0,0,0,0h0c0,0,0,0,0,0c0,0-0.1,0-0.1,0c0,0,0,0,0,0c0,0,0,0,0,0l0,0h0c0,0,0,0,0,0c0,0,0,0,0,0l0,0h0
		c0,0,0,0,0,0s0,0,0,0l0,0c0,0,0,0,0,0l0,0h0c0,0,0,0,0,0l0,0L32,19.6c0,0-11.2,5.8-11.3,5.8h0c0,0,0,0,0,0h0c0,0,0,0,0,0
		c0,0,0,0,0,0c0,0,0,0,0,0c0,0,5.2,2.1,5.2,2.1l-5.2-2.1h0l0,0l0,0c0,0,0,0,0,0v0l0,0l0,0c0,0,0,0,0,0l0,0v0l0,0l0,0c0,0,0,0-0.1,0
		c0,0,0,0,0,0l0,0c0,0,0,0,0,0l0,0c0,0,0,0,0,0c0,0,0,0,0,0l0,0c0,0,0,0,0,0l0,0c0,0,0,0,0,0c0,0,0,0,0,0h0l0,0h-0.1l0,0h0l0,0
		c0,0,0,0,0,0l0,0c0,0-0.1,0-0.2,0c0,0,0,0,0,0c0,0,0,0-0.1,0c0,0,0,0,0,0l0,0c0,0,0,0,0,0c0,0,0,0,0,0.1l0,0l0,0l0,0c0,0,0,0,0,0
		l0,0l0,0c0,0,0,0,0,0l0,0c0,0,0,0,0,0l0,0c0,0,0,0,0,0s0,0,0,0l0,0v0l0,0v0l0,0c0,0,0,0,0,0c0,0,0,0,0,0l0,0c0,0,0,0,0,0l0,0l0,0
		c0,0,0,0,0,0s0,0,0,0c0,0,0,0,0,0c0,0,0,0,0,0l0,0c0,0,0,0,0,0s0,0,0,0l0,0l0,0l0,0v0c0,0,0,0,0,0l0,0c0,0,0,0,0,0l0,0c0,0,0,0,0,0
		l0,0h0c0,0,0,0,0,0.1c0,0,0,0,0,0.1l0,0c0,0,0,0,0,0l0,0v0l0,0l0,0c0,0,0,0,0,0s0,0,0,0c0,0,0,0.1,0,0.1h0c0,0-0.1,0-0.1,0
		s-0.1,0-0.1,0c0,0-0.1,0-0.1,0c0,0-0.1,0-0.1,0l0,0c0,0,0,0,0,0c0,0,0,0,0,0c0,0,0-0.1,0-0.1c0,0,0,0,0,0l0,0h0l0,0h0l0,0
		c0,0,0,0,0,0l0,0c0,0,0,0,0-0.1l0,0l0,0l0,0v0l0,0l0,0c0,0,0,0,0,0l0,0h0l0,0l0,0l0,0h0v0c0,0,0,0,0,0l0,0v0l0,0c0,0,0,0,0,0
		c0,0,0,0,0,0c0,0,0,0,0-0.1c0,0,0,0,0,0l0,0c0,0,0,0,0,0c0,0,0,0,0,0c0,0,0,0-0.1,0c0,0-0.1,0-0.1,0c0,0,0,0,0,0s0,0,0,0
		c0,0,0,0-0.1,0l0,0c0,0-0.1,0-0.1,0c0,0,0,0,0,0c0,0,0,0,0,0c0,0,0,0,0,0h0l0,0h0c0,0,0,0,0,0h0l0,0c0,0,0,0,0,0l0,0c0,0,0,0,0,0
		c0,0,0,0,0,0c0,0,0,0,0,0c0,0,0,0,0,0l0,0c0,0,0,0-0.1,0c0,0,0,0,0,0h0l0,0h0l0,0c0,0,0,0,0,0l0,0c0,0-0.1,0.1-0.1,0.1c0,0,0,0,0,0
		c0,0,0,0,0,0l0,0l0,0c0,0,0,0,0,0c0,0,0,0,0,0c0,0,0,0,0,0v0l0,0c0,0,0,0,0,0c0,0,0,0,0,0c0,0,0,0,0,0l0,0c0,0,0,0.1,0,0.1s0,0,0,0
		l0,0l0,0c0,0,0,0,0,0s0,0,0,0c0,0,0,0.1,0,0.1c0,0,0,0,0,0l0,0l0,0l0,0c0,0,0,0,0,0l0,0l0,0l0,0v0l0,0v0l0,0l0,0c0,0,0,0,0,0
		c0,0,0,0,0,0l0,0v0l0,0c0,0,0,0,0,0l0,0l0,0l0,0v0c0,0,0,0,0,0l0,0c0,0,0,0,0,0c0,0,0,0-0.1,0c0,0,0,0,0,0c0,0,0,0,0,0l0,0l0,0l0,0
		l0,0c0,0,0,0,0,0l0,0c0,0-0.1,0-0.1,0c0,0,0,0,0,0c0,0,0,0,0,0c0,0,0,0,0,0c0,0,0,0-0.1,0l0,0h0c0,0,0,0,0-0.1c0,0,0,0,0-0.1h0l0,0
		c0,0,0,0,0,0s0,0,0,0l0,0l0,0l0,0c0,0,0,0,0,0c0,0,0,0,0,0c0,0,0,0,0,0c0,0,0,0,0,0c0,0,0,0,0,0l0,0c0,0,0,0,0,0l0,0c0,0,0,0,0,0
		l0,0l0,0c0,0,0,0,0,0l0,0c0,0,0,0,0,0h0c0,0,0,0,0,0h0l0,0h0c0,0,0,0,0-0.1c0,0,0,0-0.1,0h0c0,0,0,0-0.1,0l0,0h0l0,0h0l0,0
		c0,0,0,0,0,0c0,0,0,0,0,0c0,0,0,0-0.1,0c0,0,0,0-0.1,0c0,0,0,0,0,0l0,0c0,0,0,0-0.1,0l0,0l0,0c0,0-0.1,0-0.1,0h0l0,0h0l0,0h0l0,0
		l0,0h0c0,0,0,0,0,0h0l0,0c0,0,0,0,0,0l0,0h0c0,0,0,0,0,0c0,0,0,0,0,0l0,0l0,0c0,0,0,0,0,0l0,0c0,0,0,0,0,0h0c0,0,0,0,0,0h0l0,0
		c0,0,0,0,0,0l0,0l0,0c0,0,0,0,0,0l0,0c0,0,0,0,0,0.1c0,0,0,0,0,0s0,0,0,0c0,0,0,0,0,0.1l0,0h0c0,0,0,0,0,0l0,0l0,0c0,0,0,0,0,0l0,0
		l0,0c0,0,0,0,0,0l0,0l0,0l0,0l0,0c0,0,0,0,0,0v0c0,0,0,0,0,0c0,0,0,0,0,0l0,0l0,0c0,0,0,0,0,0c0,0,0,0,0,0.1c0,0,0,0,0,0h0l0,0l0,0
		l0,0l0,0l0,0c0,0,0,0,0,0.1c0,0,0,0,0,0h0c0,0,0,0,0,0l0,0c0,0-0.1,0-0.1,0c0,0,0,0,0,0c0,0,0,0,0,0c0,0,0,0-0.1,0c0,0,0,0,0,0
		c0,0,0,0,0,0c0,0,0,0,0,0h0l0,0c0,0,0,0,0,0c0,0,0,0,0,0s0,0,0,0l0,0l0,0l0,0c0,0,0,0,0,0l0,0v0l0,0v0v0l0,0l0,0h0c0,0,0,0,0,0
		c0,0,0,0-0.1-0.1v0l0,0l0,0l0,0c0,0,0,0,0,0v0l0,0l0,0c0,0,0,0,0,0c0,0,0-0.1,0-0.1l0,0c0,0,0,0,0,0l0,0c0,0,0,0,0,0l0,0
		c0,0,0,0,0,0s0,0,0,0l0,0c0,0,0,0,0,0c0,0,0,0,0-0.1c0,0,0,0,0,0c0,0,0,0,0,0c0,0,0,0,0,0h0l0,0h0l0,0h0c0,0,0,0-0.1,0
		c0,0,0,0-0.1,0c0,0,0,0-0.1,0c0,0,0,0,0,0l0,0h0l0,0c0,0,0,0,0,0l0,0c0,0,0,0,0,0c0,0-0.1,0-0.2,0c0,0-0.1,0-0.1,0s0,0,0,0h0l0,0h0
		l0,0c0,0,0,0,0,0c0,0,0,0,0,0c0,0,0,0-0.1,0c0,0,0,0,0,0c0,0,0,0,0,0l0,0l0,0c0,0,0,0,0,0c0,0,0,0,0,0c0,0,0,0,0,0c0,0,0,0-0.1,0
		c0,0,0,0-0.1,0l0,0c0,0,0,0,0,0c0,0,0,0,0,0h0l0,0h0c0,0,0,0,0,0l0,0c0,0,0,0-0.1,0.1c0,0,0,0-0.1,0c0,0,0,0,0,0h0c0,0,0,0-0.1,0
		l0,0l0,0h0c0,0,0,0,0,0l0,0c0,0-0.1,0.1-0.1,0.1l0,0l0,0c0,0,0,0,0,0c0,0,0,0-0.1,0c0,0-0.1,0-0.1,0h0c0,0,0,0,0,0s0,0,0,0l0,0h0
		l0,0c0,0,0,0,0,0l0,0c0,0,0,0,0,0l0,0c0,0,0,0,0,0v0l0,0l0,0l0,0c0,0,0,0,0,0l0,0c0,0,0,0,0,0c0,0,0-0.1,0-0.1c0,0,0,0,0,0h0
		c0,0,0,0,0,0l0,0c0,0,0,0,0,0l0,0l0,0l0,0l0,0c0,0,0,0,0,0l0,0c0,0,0,0,0,0c0,0,0,0,0,0c0,0,0,0,0,0v0c0,0,0,0,0,0l0,0l0,0
		c0,0,0,0,0,0c0,0,0,0,0,0c0,0,0,0,0,0l0,0l0,0l0,0c0,0,0,0,0,0l0,0l0,0l0,0l0,0c0,0,0,0,0,0l0,0l0,0c0,0,0,0,0,0l0,0l0,0l0,0l0,0
		l0,0l0,0l0,0v0c0,0,0,0,0,0h0c0,0,0,0,0,0l0,0l0,0l0,0c0,0,0,0,0,0c0,0,0,0,0,0c0,0,0,0,0,0h0l0,0c0,0,0,0,0,0l0,0l0,0l0,0l0,0h0
		c0,0,0,0,0,0l0,0c0,0,0,0,0,0c0,0,0,0-0.1,0c0,0,0,0,0,0l-0.1,0c0,0,0,0,0,0h0c0,0,0,0,0,0h0l0,0l0,0c0,0,0,0,0,0l0,0l0,0
		c0,0-0.1,0-0.1,0l0,0l0,0c0,0,0,0,0,0h0l0,0c0,0,0,0,0,0l0,0l0,0h0l0,0h0c0,0,0,0,0,0l0,0c0,0,0,0,0,0c0,0,0,0-0.1,0c0,0,0,0,0,0h0
		v0c0,0,0,0.1,0,0.1c0,0,0,0-0.1,0c0,0,0,0,0,0c0,0,0,0,0,0s0,0,0,0c0,0,0,0,0,0l0,0h0h0c0,0,0,0,0,0c0,0,0,0,0,0c0,0,0,0-0.1,0h0
		c0,0,0,0,0,0h0l0,0c0,0,0,0,0,0c0,0,0,0,0,0c0,0,0,0,0,0c0,0,0,0,0,0h0l0,0h0c0,0,0,0,0,0l0,0l0,0l0,0l0,0l0,0v0l0,0c0,0,0,0,0,0
		s0,0,0,0c0,0,0,0,0,0c0,0,0,0,0,0l0,0c0,0,0,0,0,0l0,0l0,0l0,0l0,0c0,0,0,0,0,0l0,0c0,0,0,0,0,0c0,0,0,0,0,0c0,0,0,0,0,0l0,0l0,0
		c0,0,0,0,0,0c0,0,0,0,0,0l0,0c0,0,0,0,0,0l0,0l0,0l0,0c0,0,0,0,0,0l0,0l0,0l0,0l0,0l0,0c0,0,0,0,0,0l0,0l0,0c0,0,0,0,0,0v0
		c0,0,0,0,0,0l0,0v0c0,0,0,0,0,0c0,0,0,0,0,0h0c0,0,0,0-0.1-0.1c0,0,0,0-0.1,0c0,0,0,0,0,0l0,0l0,0l0,0h0c0,0,0,0,0,0c0,0,0,0,0,0h0
		l0,0l0,0c0,0,0,0-0.1,0s0,0,0,0h0l0,0c0,0,0,0,0,0l0,0c0,0,0,0,0,0h0c0,0,0,0,0,0h0l0,0h0l0,0c0,0,0,0,0,0l0,0h0c0,0,0,0,0,0h0l0,0
		c0,0,0,0,0,0c0,0,0,0,0,0l0,0l0,0l0,0h0l0,0c0,0-0.1,0-0.1,0h0l-0.1,0l0,0h0c0,0-0.1,0-0.1,0h0c0,0,0,0,0,0s0,0,0,0c0,0,0,0,0,0
		c0,0,0,0,0,0c0,0,0,0,0-0.1c0,0,0,0,0-0.1l0,0l0,0l0,0c0,0,0,0,0,0c0,0,0,0,0,0c0,0,0-0.1,0-0.1c0,0,0,0,0-0.1v0c0,0,0,0,0-0.1
		c0,0,0-0.1,0-0.1v0l0,0l0,0l0,0v0c0,0,0,0,0,0c0,0,0,0,0,0l0,0l0,0c0,0,0,0,0,0v0l0,0c0,0,0,0,0-0.1c0,0,0,0,0,0
		c0,0,14.2-18.8,14.2-18.7C24.5,9.8,8.4,24.1,8.4,24.1c0.2-0.8-0.6-0.1-0.6-0.1c0,0-0.1,0.8-0.1,0.8h0c0,0,0,0,0,0l0,0h0
		c0,0,0,0,0,0c0,0,0,0,0,0l0,0l0,0l0,0c0,0,0,0,0,0l0,0l0,0l0,0v0l0,0l0,0c0,0,0,0,0,0l0,0c0,0-0.1,0-0.1,0l0,0l0,0l0,0c0,0,0,0,0,0
		l0,0l0,0c0,0,0,0,0,0l0,0l0,0c0,0,0,0,0,0l0,0l0,0c0,0,0,0,0,0h0l0,0h0l0,0h0c0,0,0,0-0.1,0l0,0c0,0-0.1,0-0.1,0c0,0,0,0,0,0l0,0
		c0,0,0,0,0,0l0,0c0,0,0,0,0,0l0,0c0,0,0,0,0,0l0,0h0l0,0c0,0,0,0,0,0l0,0l0,0v0l0,0c0,0,0,0,0,0l0,0c0,0,0,0,0,0c0,0,0,0,0,0l0,0
		l0,0c0,0,0,0,0,0h0c0,0,0,0,0,0s0,0,0,0h0h0l0,0c0,0,0,0-0.1,0c0,0,0,0,0,0h0l0,0l0,0l0,0c0,0,0,0,0,0l0,0l0,0c0,0,0,0,0,0
		c0,0,0,0,0,0h0c0,0,0,0,0,0h0l0,0c0,0,0,0,0,0c0,0,0,0,0,0l0,0h0l0,0c0,0,0,0,0,0l0,0c0,0,0,0,0,0c0,0,0,0,0,0h0l0,0c0,0,0,0,0,0h0
		c0,0,0,0,0,0l0,0l0,0c0,0,0,0,0,0c0,0,0,0,0,0h0l0,0c0,0,0,0,0,0c0,0,0,0,0,0l0,0h0l0,0c0,0,0,0,0,0l0,0l0,0l0,0c0,0,0,0,0,0v0
		c0,0,0,0,0,0v0c0,0,0,0,0,0l0,0c0,0,0,0,0,0c0,0,0.1,0,0.1,0l0,0c0,0,0,0,0,0c0,0,0-0.1,0-0.1l0,0v0c0,0,0,0,0-0.1c0,0,0,0,0,0
		c0,0,0,0,0-0.1l0,0c0,0,0,0,0,0c0,0,0-0.1,0-0.1c0,0,0,0,0,0c0,0,0,0,0,0c0,0,0,0,0,0l0,0l0,0c0,0,0,0,0,0l0,0c0,0,0-0.1,0-0.1
		s0,0,0,0l0,0c0,0,0,0,0,0c0,0,0,0,0,0c0,0,0,0,0,0l0,0c0,0,0,0,0,0l0,0l0,0l0,0c0,0,0,0,0,0c0,0,0-0.1,0-0.1v0c0,0,0,0,0,0
		c0,0,0,0,0-0.1c0,0-0.1,0-0.1,0s0,0,0,0c0,0,0,0,0,0c0,0,0,0,0-0.1c0,0,0,0-0.1-0.1c0,0,0,0,0,0v0c0,0,0,0,0,0c0,0,0,0,0,0
		c0,0,0,0,0,0c0,0,0,0,0,0c0,0,0,0,0,0c0,0,0,0,0,0h0l0,0l0,0c0,0,0,0,0,0c0,0,0,0,0,0c0,0,0,0,0,0s0-0.1,0-0.1c0,0,0,0,0-0.1
		c0,0,0,0,0,0c0,0,0,0,0,0l0,0h0c0,0,0,0,0,0h0l0,0c0,0,0,0,0,0l0,0c0,0,0,0,0,0l0,0c0,0,0,0,0,0l0,0c0,0,0,0,0,0c0,0,0,0,0,0
		c0,0,0,0,0,0l0,0l0,0l0,0l0,0l0,0c0,0-0.1,0-0.1,0l0,0l0,0h0c0,0,0,0,0,0l0,0l0,0c0,0,0-0.1,0-0.1h0c0,0,0,0,0,0h0c0,0,0,0,0,0
		c0,0,0,0,0,0l0,0c0,0,0,0,0,0c0,0,0,0,0-0.1l0,0l0,0c0,0,0,0,0,0c0,0,0,0,0,0c0,0,0,0-0.1,0c0,0,0,0-0.1-0.1c0,0,0,0-0.1,0
		c0,0,0,0,0,0h0l0,0l0,0l0,0c0,0,0,0,0,0c0,0,0,0,0,0h0l0,0c0,0,0,0,0,0v0c0,0,0,0,0,0c0,0,0,0,0,0l0,0c0,0,0,0,0-0.1l0,0
		c0,0,0,0,0,0c0,0,0,0,0,0v0l0,0l0,0v0l0,0c0,0,0,0,0,0c0,0,0-0.1,0-0.1s0,0,0-0.1c0,0,0,0,0,0v0c0,0,0-0.1,0-0.1c0,0,0,0,0,0
		c0,0,0,0,0-0.1c0,0,0,0,0-0.1c0,0,0,0,0-0.1v0c0,0,0,0,0-0.1v0c0,0,0,0,0,0c0,0,0,0,0,0h0c0,0,0,0,0-0.1c0,0,0,0,0,0c0,0,0,0,0,0h0
		v0c0,0,0,0,0,0l0,0l0,0c0,0,0,0,0,0c0,0,0,0,0,0l0,0v0c0,0,0,0,0,0l0,0v0l0,0l0,0l0,0c0,0,0,0,0,0l0,0l0,0c0,0,0,0,0,0l0,0h0
		c0,0,0-0.1,0-0.1c0,0,0,0,0,0l0,0l0,0c-0.6-0.2-0.6-0.2-0.6-0.2h0l0,0l0,0l0,0c0,0,0,0,0,0c0,0,0,0,0,0c0,0,0,0,0,0c0,0,0,0,0,0
		l0,0c0,0,0,0,0,0l0,0l0,0c0,0,0,0,0,0l0,0l0,0l0,0c0,0,0,0,0,0h0c0,0,0,0,0,0c0,0,0,0,0,0c0,0,0,0,0,0l0,0h0l0,0h0l0,0l0,0
		c0,0,0,0,0,0s0,0-0.1,0l0,0c0,0,0,0,0,0l0,0l0,0c0,0,0,0,0,0h0l0,0h0l0,0h0c0,0,0,0,0,0l0,0c0,0,0,0,0,0l0,0c0,0,0,0,0,0
		c0,0,0,0,0,0l0,0h0c0,0,0,0,0,0l0,0h0c0,0,0,0,0,0l0,0c0,0,0,0,0,0c0,0,0,0,0,0l0,0l0,0c0,0,0,0,0,0c0,0,0,0,0,0v0c0,0,0,0,0,0
		c0,0,0,0,0,0c-0.1-0.1-0.1-0.2-0.1-0.2c0,0,0,0,0,0c0,0,0,0,0-0.1c0,0,0,0,0,0c0,0,0,0,0,0v0c0,0,0,0,0-0.1h0l0,0l0,0l0,0h0l0,0
		l0,0l0,0c0,0,0,0,0-0.1l0,0l0,0c0,0,0,0,0-0.1c0,0,0,0,0,0c0,0,0,0,0,0l0,0c0,0,0,0,0,0l0,0c0,0,0,0,0,0c0,0,0,0,0,0c0,0,0,0,0,0
		c0,0,0,0,0,0l0,0v0l0,0l0,0c0,0,0,0,0,0l0,0h0v0c0,0,0,0,0,0s0-0.1,0-0.1c0,0,0,0,0,0c0,0,0,0,0,0l0,0h0c0,0,0,0,0,0l0,0l0,0
		c0,0,0,0,0,0l0,0h0c0,0,0,0,0-0.1c0,0,0,0,0,0c0,0,0,0,0,0l0,0l0,0l0,0c0,0,0,0,0-0.1s0-0.1,0-0.1c0,0,0,0,0,0c0,0,0,0,0-0.1l0,0
		c0,0,0,0,0,0v0c0,0,0,0,0,0c0,0,0,0,0,0c0,0,0,0,0,0c0,0,0,0,0,0l0,0c0,0,0,0,0,0l0,0c0,0,0,0,0,0l0,0l0,0c0,0,0,0,0,0s0,0,0,0l0,0
		l0,0c0,0,0,0,0,0l0,0c0,0,0,0,0,0c0,0,0,0,0,0c0,0,0,0,0,0l0,0c0,0,0,0,0,0l0,0l0,0l0,0l0,0l0,0c0,0,0,0,0-0.1c0,0,0,0,0,0l0,0h0
		l0,0l0,0c0,0,0,0,0-0.1c0,0,0,0,0,0l0,0c0,0,0,0,0,0l0,0h0c0,0,0,0,0,0c0,0,0,0,0-0.1c0,0,0,0,0,0l0,0c0,0,0,0,0,0l0,0l0,0l0,0v0
		c0,0,0,0,0,0h0c0,0,0,0,0,0c0,0,0,0,0,0c0,0,0,0,0,0c0,0,0-0.1,0-0.1c0,0,0,0,0,0c0,0,0,0,0,0l0,0v0c0,0,0,0,0,0c0,0,0.1,0,0.1-0.1
		c0,0,0,0,0,0c0,0,0,0,0,0l0,0c0,0,0,0,0,0c0,0,0,0,0,0c0,0,0,0,0,0l0,0h0l0,0l0,0c0,0,0,0,0,0l0,0l0,0c0,0,0,0,0-0.1c0,0,0,0,0,0
		s0,0,0-0.1c0,0,0,0,0,0h0c0,0,0,0,0,0l0,0l0,0c0,0,0,0,0,0v0l0,0c0,0,0,0,0,0v0l0,0v0l0,0l0,0c0,0,0,0,0,0l0,0l0,0l0,0l0,0l0,0l0,0
		l0,0l0,0l0,0l0,0c0,0,0,0,0,0l0,0c0,0,0,0,0,0c0,0,0,0-0.1,0s0,0,0,0h0c0,0,0,0,0-0.1c0,0,0,0,0,0l0,0c0,0,0,0,0,0c0,0,0,0,0,0
		c0,0,0,0,0,0l0,0c0,0,0,0,0,0c0,0,0,0,0,0c0,0,0,0,0,0c0,0,0,0,0,0c0,0,0,0,0,0c0,0,0,0-0.1,0c0,0,0,0,0-0.1v0c0,0,0,0,0,0l0,0
		c0,0,0,0,0,0c0,0,0,0,0-0.1v0l0,0c0,0,0-0.1,0-0.1l0,0l0,0l0,0h0c0,0,0,0,0,0c0,0,0,0,0.1,0c0,0,0,0,0.1,0s0,0,0.1,0c0,0,0,0,0,0h0
		l0,0c0,0,0,0,0.1,0c0,0,0,0,0,0l0,0c0,0,0,0,0,0l0,0l0,0l0,0h0l0,0l0,0c0,0,0,0,0,0l0,0c0,0,0,0,0,0l0,0c0,0,0.1,0,0.1,0
		c0,0,0,0,0.1,0c0,0,0,0,0,0l0,0c0,0,0,0,0,0l0,0c0,0,0,0,0,0c0,0,0,0,0,0l0,0l0,0l0,0l0,0c0,0,0,0,0,0l0,0l0,0l0,0c0,0,0,0,0,0l0,0
		c0,0,0,0,0,0l0,0l0,0l0,0c0,0,0,0,0-0.1s0,0,0,0c0,0,0,0,0-0.1l0,0v0c0,0,0,0,0,0l0,0c0,0,0,0,0,0c0,0,0,0,0,0v0c0,0,0,0,0-0.1v0
		c0,0,0,0,0,0s0,0,0,0c0,0,0-0.1,0-0.1v0c0,0,0,0,0-0.1c0,0,0,0,0,0l0,0l0,0c0,0,0,0,0,0l0,0c0,0,0,0,0,0c0,0,0,0,0,0l0,0
		c0,0,0,0,0-0.1c0,0,0-0.1,0-0.1v0c0,0,0,0,0.1,0c0,0,0,0,0-0.1l0,0c0,0,0,0,0,0v0c0,0,0,0,0,0c0,0,0,0,0,0l0,0l0,0c0,0,0,0,0,0v0
		c0,0,0,0,0-0.1v0c0,0,0,0,0,0l0,0c0,0,0,0,0,0l0,0l0,0h0c0,0,0,0,0,0c0,0,0,0,0,0c0,0,0,0,0,0h0l0,0h0l0,0c0,0,0,0,0,0l0,0h0
		c0,0,0,0,0,0h0c0,0,0,0,0,0l0,0c0,0,0,0,0,0l0,0c0,0,0,0,0,0l0,0l0,0c0,0,0,0,0,0h0h0c0,0,0,0,0,0c0,0,0,0,0,0l0,0c0,0,0,0,0,0
		c0,0,0,0,0,0c0,0,0,0,0,0l0,0l0,0c0,0,0,0,0,0c0,0,0,0,0,0c0,0,0-0.1,0-0.1s0,0,0,0c0,0,0,0,0,0c0,0,0,0,0,0l0,0h0c0,0,0,0,0,0
		c0,0,0,0,0,0l0,0c0,0,0,0,0,0c0,0,0-0.1,0-0.1l0,0c0,0,0,0,0,0c0,0,0,0,0,0l0,0c0,0,0,0,0-0.1c0,0,0,0,0,0l0,0l0,0l0,0
		c0,0,3.4,5,3.5,5c0,0-3.4-5-3.3-5l0,0h0h0c0,0,0,0,0,0c0,0,0.1,0,0.1,0c0,0,0,0,0.1,0h0c0,0,0,0,0,0h0l0,0c0,0,0,0,0,0s0,0,0.1,0
		l0,0c0,0,0,0,0,0l0,0c0,0,0,0,0.1,0h0l0,0c0,0,0,0,0,0l0,0l0,0h0c0,0,0,0,0.1,0l0,0c0,0,0.1,0,0.1,0c0,0,0,0,0,0h0l0,0c0,0,0,0,0,0
		c0,0,0,0,0,0s0,0,0,0l0,0l0,0l0,0c0,0,0,0,0,0l0,0h0l0,0c0,0,0,0,0,0l0,0c0,0,0,0,0,0c0,0,0,0,0,0l0,0l0,0v0c0,0,0,0,0,0
		c0,0,0,0,0,0h0c0,0,0,0,0,0h0c0,0,0,0,0,0l0,0c0,0,0,0,0-0.1c0,0,0,0,0,0c0,0,0,0,0,0l0,0l0,0l0,0l0,0c0,0,0,0,0,0v0l0,0
		c0,0,0,0,0,0l0,0l0,0c0,0,0,0,0,0l0,0c0,0,0,0,0,0l0,0c0,0,0,0,0,0l0,0c12.3,7.5,0-0.2,0-0.3c0,0,0,0,0,0h0c0,0,0,0,0,0
		c0,0,0,0-0.1,0l0,0h0l0,0h0l0,0h0c0,0,7.7,7.1,7.7,7.1L3.6,11c0,0,0,0,0,0c0,0,0,0,0,0l0,0l0,0c0,0,0,0,0,0v0l0,0l0,0l0,0
		c0,0,0,0,0,0c0,0,0,0,0,0l0,0c0,0,0,0,0,0l0,0c0,0,0,0,0,0l0,0l0,0c0,0,0,0,0,0c0,0,0,0,0-0.1c0.1-0.9,0.1-0.9,0.1-0.9v0
		c0,0,7.8-4.2,7.8-4.2L3.5,9.8l0,0l8.3-4.4c0.7,0.8,0,3.8-8.5,4.5c7.8-4.1,0.2-0.2,0.2-0.2l0,0v0l0,0c0,0,0,0,0-0.1c0,0,0,0,0,0
		c0,0,0.1,0,0.1,0c0,0,0,0,0,0l0,0l0,0c0,0,0,0,0,0c0,0,0,0,0,0s0,0,0,0c0,0,0,0,0,0l0,0h0c0,0,0.1,0,0.1,0c0,0,0,0,0.1,0
		c0,0,0.1,0,0.1,0c0,0,0,0,0,0l0,0c0,0,0,0,0,0h0c0,0,0,0,0,0s0,0,0,0l0,0h0c0,0,0,0,0,0l0,0c0,0,0,0,0,0l0,0c0,0,0,0,0,0
		c0,0,0,0,0,0c0,0,0,0,0,0c0,0,0,0,0,0c0,0,0,0,0.1,0c0,0,0,0,0,0c0,0,0,0,0.1,0c0,0,0,0,0,0c0,0,0,0,0,0c0,0,0,0,0-0.1c0,0,0,0,0,0
		c0,0,0,0,0,0c0,0,0,0,0,0c0,0,0-0.1,0.1-0.1c0,0,0,0,0,0l0,0c0,0,0-0.1,0-0.1c0,0,0,0,0,0v0l0,0l0,0l0,0h0l0,0c0,0,0,0,0,0
		c0,0,0,0,0-0.1c0,0,0,0,0-0.1c0,0,0-0.1,0-0.1s0,0,0-0.1c0,0-0.1,0,0-0.1l8.6,13.3L5,8.5l0,0c0,0,0,0,0,0c0,0,0,0,0,0s0,0,0,0l0,0
		c0,0,0,0,0,0l0,0c0,0,0,0,0,0l0,0l0,0l0,0c0,0,0,0,0,0c0,0,0,0,0,0c0-0.1-0.1-0.1-0.1-0.2c0,0,0,0,0,0c0,0,0-0.1,0-0.1l0,0h0l0,0
		c0,0,0,0,0,0l0,0c0,0,0,0,0,0c0,0,0,0,0,0l0,0c0,0,0,0,0,0h0l0,0c0,0,0-0.1,0-0.1c0,0,0,0,0,0l0,0h0c0,0,0,0,0,0l0,0c0,0,0,0,0,0
		l0,0c0,0,0,0,0,0c0,0,0,0,0,0c0,0,0,0,0,0l0,0c0,0,0,0,0.1,0c0,0,0,0,0.1,0c0,0,0,0,0,0c0,0,0,0,0.1,0c0,0,0,0,0,0c0,0,0,0,0,0l0,0
		l0,0h0l0,0h0c0,0,0,0,0,0c0,0,0.1,0,0.1,0l0,0h0l0,0l0,0h0l0,0h0c0,0,0,0,0,0l0,0c0,0,0,0,0,0h0l0,0l0,0c0,0,0,0,0,0h0c0,0,0,0,0,0
		s0,0,0,0l0,0h0l0,0h0l0,0l0,0l0,0c0,0,0,0,0,0l0,0c0,0,0,0,0,0l0,0h0h0l0,0c0,0,0,0,0,0c0,0,0,0,0,0l0,0c0,0,0,0,0,0l0,0h0l0,0l0,0
		l0,0l0,0l0,0l0,0l0,0l0,0l0,0l0,0l0,0l0,0l0,0c0,0,0,0,0,0v0l0,0v0v0l0,0l0,0l0,0l0,0c0,0,0,0,0,0l0,0l0,0c0,0,0,0,0,0l0,0
		c0,0,0,0,0,0c0,0,0,0,0,0l0,0c0,0,0,0,0-0.1c0,0,0,0,0,0h0c0,0,0,0,0,0l0,0l0,0l0,0c0,0,0,0,0,0c0,0,0,0,0,0l0,0l0,0l0,0
		c0,0,10.2,6.9,10.3,6.9c0,0-10.2-6.9-10.2-6.9l0,0v0l0,0l0,0h0c0,0,0,0,0-0.1c0,0,0,0,0,0c0,0,0,0,0,0l0,0l0,0c0,0,0,0,0,0l0,0l0,0
		l0,0h0l0,0c0,0,0,0,0,0c0,0,0,0,0,0l0,0c0,0,0,0,0-0.1c0,0,0-0.1,0-0.1c0,0,0,0,0-0.1c0,0,0-0.1,0-0.1l0,0v0l0,0l0,0c0,0,0,0,0,0
		c0,0,0,0,0,0c0,0,0,0,0,0c0,0,0,0,0,0c0,0,0,0,0,0v0l0,0v0c0,0,0-0.1,0.1-0.1l0,0c4.5,10.2,0.1,0,0.1,0c0,0,9.5,6.9,0,0
		c0,0,0,0,0,0l0,0c0,0,0,0,0,0h0l0,0c0,0,0.1,0,0.1,0l0,0c0,0,0,0,0,0c0,0,0,0,0,0l0,0h0c0,0,0,0,0,0c0,0,0,0,0,0l0,0c0,0,0,0,0,0
		c0,0,0.1,0,0.1,0l0,0c0,0,0,0,0,0h0l0,0h0l0,0l0,0h0l0,0l0,0c0,0,0,0,0,0l0,0c0,0,0,0,0,0l0,0l0,0l0,0h0l0,0c0,0,0.1,0,0.1,0
		s0,0,0,0c0,0,0.1,0,0.1,0s0,0,0,0c0,0,0,0,0,0h0h0h0c0,0,0,0,0,0l0,0l0,0c0,0,0,0,0,0l0,0c0,0,0,0,0,0l0,0c0,0,0,0,0,0l0,0l0,0
		c0,0,6.4,9.3,6.4,9.3c0,0-6.3-9.3-6.3-9.3c0,0,0,0,0.1,0c0,0,0,0,0,0l0,0c0,0,0,0,0.1,0c0,0,0,0,0,0l0,0c0,0,0,0,0,0l0,0l0,0l0,0
		l0,0l0,0l0,0c0,0,0,0,0,0l0,0l0,0c0,0,0,0,0,0c0,0,0,0,0,0c0,0,0,0,0,0l0,0c0,0,0,0,0,0c0,0,0,0,0,0l0,0c0,0,0,0,0,0v0c0,0,0,0,0,0
		l0,0c0,0,0,0,0,0c0,0,0,0,0-0.1c0,0,0,0,0,0l0,0c0,0,0,0,0,0c0,0,0-0.1,0-0.1c0,0,0,0,0,0c0,0,0,0,0,0c0,0,0,0,0,0
		c0,0-0.1,0-0.1-0.1c0,0,0,0,0-0.1c0,0,0,0,0-0.1c0,0,0,0,0,0v0c0,0,0,0,0,0v0c0,0,0,0,0,0v0c0,0,0,0,0-0.1l0,0l0,0l0,0c0,0,0,0,0,0
		c0,0,0,0,0,0l0,0c0,0,0,0,0,0l0,0c0,0,0,0,0,0c0,0,0,0,0,0l0,0l0,0l0,0h0l0,0l0,0h0l0,0l0.1,0c0,0,0,0,0,0c0,0,0,0,0.1,0l0,0h0l0,0
		c0,0,0,0,0,0c0,0,0,0,0,0l0,0c0,0,0,0,0,0l0,0l0,0l0,0l0,0l0,0l0,0l0,0c0,0,0,0,0,0c0,0,0,0,0,0l0,0c0,0,0,0,0,0l0,0c0,0,0,0,0,0h0
		c0,0,0,0,0,0l0,0l0,0l0,0c0,0,0,0,0,0c0,0,0,0,0,0c0,0,0,0,0,0l0,0c0,0,0,0,0,0l0,0l0,0l0,0l0,0l0,0l0,0c0,0,14.5,17.3,14.5,17.3
		L9.9,5c0,0,0,0,0,0l0,0l0,0c0,0,0,0,0,0l0,0l0,0l0,0c0,0,0.1,0,0.1,0.1l0,0l16.1,19.2c0,0-16.1-19.2-16.1-19.2l0,0c0,0,0,0,0,0
		l13.7,11.2c0,0-13.7-11.2-13.7-11.2h0h0c0,0,0,0,0,0l0,0h0c0,0,0,0,0,0h0c0,0,0,0,0.1,0c0,0,0,0,0,0c0,0,13.2,17.7,0,0
		c13.4,17.4,12.9,17.9,12.9,17.9C38,41.4,25.5,2.9,10.6,4.9l0,0l0,0c0,0,0,0,0,0l0,0c0,0,0,0,0,0c0,0,0,0,0,0l0,0c0,0,0,0,0,0l0,0
		c0,0,0,0,0,0c0,0,0,0,0,0c0,0,0,0,0,0c0,0,0,0,0,0l0,0c0,0,0,0,0,0c0,0,0,0,0,0h0h0l0,0l0,0l0,0h0l0,0l0,0l0,0h0l0,0c0,0,0,0,0,0
		l0,0c0,0,0,0,0,0c0,0,0,0,0,0c0,0,0,0,0,0l0,0l0,0l0,0l0,0v0c0,0,0,0,0,0l0,0l0,0l0,0l0,0l0,0l0,0c0,0,0,0,0-0.1l0,0c0,0,0,0,0,0
		l0,0l0,0l0,0v0l0,0v0l0,0c0,0,0,0,0,0s0,0,0,0c0,0,0,0,0-0.1C11.5,4,11.5,4,11.5,3.9s0-0.1,0-0.1l0,0c0,0,0,0,0,0l0,0l0,0
		c0,0,0,0,0,0l0,0h0l0,0h0l0,0h0c0,0,0,0,0,0l0,0v0l0,0l0,0c0,0,0,0,0,0h0c0,0,0,0,0,0s0,0,0.1,0c0,0,0,0,0,0c0,0,0,0,0,0l0,0
		c0,0,0-0.1,0,0h0c0,0,0,0,0,0c0,0,0,0,0,0c0,0,0,0,0.1,0h0c0,0,0,0,0,0.1h0v0c0,0,0,0,0,0c0,0,0,0,0,0l0,0c0,0,0,0,0,0l0,0l0,0
		c0,0,0,0,0,0c0,0,0,0,0.1,0c0,0,0,0,0,0s0,0,0,0c0,0,0,0,0,0l0,0h0c0,0,0,0,0,0l0,0l0,0l0,0l0,0h0l0,0h0c0,0,0,0,0,0h0c0,0,0,0,0,0
		h0l0,0h0l0,0c0,0,0,0,0,0l0,0c0,0,0,0,0,0h0l0,0c0,0,0.1,0,0.1,0l0,0c0,0,0,0,0,0c0,0,0,0,0,0c0,0,0,0,0,0c0,0,0,0,0,0c0,0,0,0,0,0
		c0,0,0,0,0,0c0,0,0,0,0.1,0c0,0,0,0,0.1,0c0,0,0,0,0,0s0,0,0,0l0,0l0,0c0,0,0.1,0,0.1,0c0,0,0,0,0,0c0,0,0.1,0,0.1,0h0c0,0,0,0,0,0
		h0c0,0,0,0,0,0l0,0c0,0,0,0,0,0s0,0,0,0l0,0c0,0,0,0,0,0c0,0,0,0,0,0c0,0,0.1,0,0.1,0l0,0c0,0,0,0,0,0h0l0,0c0,0,0,0,0,0h0h0
		c0,0,0,0,0.1,0c0,0,0,0,0,0c0,0,0,0,0,0c0,0,0,0,0,0l0,0h0l0,0c0,0,0,0,0,0l0,0l0,0c0,0,0,0,0,0l0,0l0,0l0,0l0,0c0,0,0,0,0,0
		c0,0,0,0,0,0c0,0,0,0,0,0c0,0,0,0,0,0c0,0,0,0,0,0c0,0,0,0,0,0l0,0v0h0h0c0,0,0,0,0,0h0c0,0,0,0,0,0c0,0,0,0,0,0l0,0c0,0,0,0,0,0
		c0,0,0,0,0.1,0c0,0,0,0,0,0h0c0,0,0,0,0,0h0l0,0c0,0,0,0,0.1,0c0,0,0,0,0,0h0c0,0,0,0,0,0l0,0h0l0,0c0,0,0,0,0,0l0,0c0,0,0,0,0,0
		c0,0,0,0,0,0c0,0,0,0,0.1,0c0,0,0,0,0,0h0c0,0,0,0,0,0.1s0,0,0,0.1l0,0l0,0c0,0,0,0,0,0l0,0l0,0c0,0,0,0,0,0l0,0l0,0c0,0,0,0,0,0
		l0,0c0,0,0,0,0,0l0,0c0,0,0,0,0,0l0,0l0,0C15.8,3.9,15.9,3.9,15.9,4C15.9,4,15.9,4,15.9,4L15.9,4z"/>
	<path class="st0" d="M24.1,22.6L24.1,22.6L24.1,22.6L24.1,22.6z"/>
	<rect x="35.8" y="0.7" class="st1" width="209.7" height="30.1"/>
	<text transform="matrix(1 0 0 1 35.7898 26.0479)" class="st2 st3">NAKAGAWA</text>
</g>
</svg>
